<?xml version="1.0" encoding="utf-8"?>
<!-- Generator: Adobe Illustrator 27.0.0, SVG Export Plug-In . SVG Version: 6.00 Build 0)  -->
<svg version="1.1" id="Capa_1" xmlns="http://www.w3.org/2000/svg" xmlns:xlink="http://www.w3.org/1999/xlink" x="0px" y="0px"
	 viewBox="0 0 1539.6 332.3" style="enable-background:new 0 0 1539.6 332.3;" xml:space="preserve">
<style type="text/css">
	.st0{fill:#FFFFFF;}
</style>
<g>
	<g>
		<path class="st0" d="M409.4,164.9c20.9-10.6,38.5-32.3,34.7-57c-3.3-21.4-22.1-34.8-50.3-35.6H247.4l-41.1,194.8h43.8l3.5-0.2
			h104.6v0.2h3.5c43.7,0,70.5-30,73.6-58.1C437.4,188.8,427.7,172.5,409.4,164.9z M285,114.5h99.2c5,0,8.8,1.3,10.7,3.8
			c2.3,2.9,2.1,6.8,1.4,9.7c-1.8,9.2-8.9,13.8-25.7,16.8l-2,0.6c-6.5,1.4-12.2,7-13.7,13.7l-2.4,11.1c-1.4,6.8,1.8,12.8,8.2,15
			c21.8,7.4,31,11.7,28.6,23l0,0c-1.5,7.5-6.3,16.5-20.2,16.5H261.7L285,114.5z"/>
		<path class="st0" d="M441.2,203.1c0-42.6,34.6-76.7,78.6-76.7c39.4,0,68.4,26.6,68.4,63.8c0,42.4-34.3,76.7-78.6,76.7
			C470.1,266.9,441.2,240.4,441.2,203.1z M511.9,229.3c20.6,0,34.6-17.7,34.6-36.5c0-16.6-11.7-29-29.3-29
			c-18.8,0-34.6,15.6-34.6,36.5C482.8,217,494.5,229.3,511.9,229.3z"/>
		<path class="st0" d="M615.8,75.9h41.6l-32.9,187.8h-41.6L615.8,75.9z"/>
		<path class="st0" d="M642.7,203.6c0-42.6,34.6-77.3,77.3-77.3c34.6,0,63.8,22,63.8,59.3c0,8.3-0.8,14.7-3,22.8h-97.1
			c1.4,14.5,13.1,23.6,29.5,23.6c12.9,0,21.8-7.8,26.8-15l34.9,13.4c-10.3,20.6-34.1,36.5-63.4,36.5
			C671.7,266.9,642.7,240.4,642.7,203.6z M745.6,178.9c-3-10.9-13.9-17.7-27.4-17.7c-12.1,0-22.2,3.8-29.8,17.7H745.6z"/>
		<path class="st0" d="M799.9,218.4l9.4-53.9h-24.2l6.2-34.9H802c9.7,0,14.7-6.5,18-25.2l1.8-10.7h41.6l-6.5,35.9h30.3l-6.2,34.9
			h-29.5l-9.1,51c-1.8,10.7,2.4,15.8,11.5,15.8c5.4,0,12.1-1,17.4-2.6l-0.2,32.1c-8.9,3-18.8,4.6-28.7,4.6
			C810.6,265.3,795.3,245.2,799.9,218.4z"/>
		<path class="st0" d="M872.6,203.6c0-42.6,34.6-77.3,77.3-77.3c34.6,0,63.8,22,63.8,59.3c0,8.3-0.8,14.7-3,22.8h-97.1
			c1.4,14.5,13.1,23.6,29.5,23.6c12.9,0,21.8-7.8,26.8-15l34.9,13.4c-10.3,20.6-34.1,36.5-63.4,36.5
			C901.6,266.9,872.6,240.4,872.6,203.6z M975.7,178.9c-3-10.9-13.9-17.7-27.4-17.7c-12.1,0-22.2,3.8-29.8,17.7H975.7z"/>
		<path class="st0" d="M1032.8,129.6h42.4l-2.2,11.3c9.1-9.7,20.4-14.5,33.3-14.5c5.4,0,10.3,0.6,15.6,2.2l-6.5,36.5
			c-4.8-1-11.1-1.8-15.6-1.8c-19,0-32.7,10.7-35.9,29.5l-12.6,71.1h-42.2L1032.8,129.6z"/>
		<path class="st0" d="M1131.9,129.6h41.6l-23.6,134.2h-41.6L1131.9,129.6z M1161.7,65.2c13.4,0,23.6,10.3,23.6,23.6
			c0,14.7-13.4,27.9-28.5,27.9c-13.4,0-23.6-10.3-23.6-23.6C1133.3,78.3,1146.6,65.2,1161.7,65.2z"/>
		<path class="st0" d="M1171.1,204.9c0-41.8,30.3-78.6,73.8-78.6c18.8,0,33.3,5.6,43.8,16.4l2.4-13.1h42.2l-23.6,134.2h-41.8l1-6.7
			c-9.9,6.7-21.4,9.9-34.6,9.9C1195.9,266.9,1171.1,240.6,1171.1,204.9z M1243.6,229.3c19.4,0,35.7-15.6,35.7-35.9
			c0-16.6-12.6-29.5-30.9-29.5c-19.4,0-35.7,15.6-35.7,35.9C1212.7,216.4,1225.4,229.3,1243.6,229.3z"/>
	</g>
</g>
</svg>
